<?xml version="1.0" encoding="utf-8"?>
<!-- Generator: Adobe Illustrator 22.1.0, SVG Export Plug-In . SVG Version: 6.00 Build 0)  -->
<svg version="1.1" id="Movies" xmlns="http://www.w3.org/2000/svg" xmlns:xlink="http://www.w3.org/1999/xlink" x="0px" y="0px"
	 viewBox="0 0 491.9 491.9" style="enable-background:new 0 0 491.9 491.9;" xml:space="preserve">
<style type="text/css">
	.st0{fill:#3C3C3C;}
	.st1{fill:url(#SVGID_1_);}
	.st2{fill:url(#SVGID_2_);}
</style>
<path class="st0" d="M357.7,423.3c0,9.3-10.7,16.9-23.8,16.9h-310c-13.2,0-23.8-7.6-23.8-16.9V203.7c0-9.3,10.7-16.9,23.8-16.9h310
	c13.2,0,23.8,7.6,23.8,16.9V423.3L357.7,423.3z"/>
<linearGradient id="SVGID_1_" gradientUnits="userSpaceOnUse" x1="29.8" y1="118.7" x2="149" y2="118.7">
	<stop  offset="0" style="stop-color:#3C3C3C"/>
	<stop  offset="0.4047" style="stop-color:#373737"/>
	<stop  offset="0.8853" style="stop-color:#292929"/>
	<stop  offset="1" style="stop-color:#242424"/>
</linearGradient>
<circle class="st1" cx="89.4" cy="118.7" r="59.6"/>
<linearGradient id="SVGID_2_" gradientUnits="userSpaceOnUse" x1="290.6562" y1="168.3297" x2="216.1438" y2="39.2703">
	<stop  offset="0" style="stop-color:#3C3C3C"/>
	<stop  offset="0.4047" style="stop-color:#373737"/>
	<stop  offset="0.8853" style="stop-color:#292929"/>
	<stop  offset="1" style="stop-color:#242424"/>
</linearGradient>
<circle class="st2" cx="253.4" cy="103.8" r="74.5"/>
<path class="st0" d="M491.9,447.7c0,0-2,14.9-15.9,14.9s-103.3-83.4-103.3-94.4V258.9c0-11,87.4-94.4,103.3-94.4
	s15.9,14.9,15.9,14.9V447.7z"/>
</svg>
