<?xml version="1.0" encoding="utf-8"?>
<!-- Generator: Adobe Illustrator 22.1.0, SVG Export Plug-In . SVG Version: 6.00 Build 0)  -->
<svg version="1.1" id="Capa_1" xmlns="http://www.w3.org/2000/svg" xmlns:xlink="http://www.w3.org/1999/xlink" x="0px" y="0px"
	 viewBox="0 0 409.5 409.5" style="enable-background:new 0 0 409.5 409.5;" xml:space="preserve">
<style type="text/css">
	.st0{fill:#3C3C3C;}
</style>
<path class="st0" d="M323.2,76.4c-1-0.9-2.4-1.3-3.7-1.1l-146,18.9c-2.3,0.3-4.1,2.3-4.1,4.7v28.3V147v119.5
	c-8.6-10.3-22.3-17.1-37.7-17.1c-26,0-47.1,19-47.1,42.4s21.1,42.4,47.1,42.4s47.1-19,47.1-42.4c0-1.1-0.1-2.2-0.2-3.2
	c0.1-0.3,0.2-0.6,0.2-0.9V151.1l136.6-17.7v86c-8.6-10.3-22.3-17.1-37.7-17.1c-26,0-47.1,19-47.1,42.4s21.1,42.4,47.1,42.4
	c25.7,0,46.7-18.7,47.1-41.8c0-0.1,0-0.1,0-0.2v-117v-19.8V80C324.8,78.6,324.2,77.3,323.2,76.4z"/>
</svg>
