<?xml version="1.0" encoding="utf-8"?>
<!-- Generator: Adobe Illustrator 23.0.1, SVG Export Plug-In . SVG Version: 6.00 Build 0)  -->
<svg version="1.1" id="Roku" xmlns="http://www.w3.org/2000/svg" xmlns:xlink="http://www.w3.org/1999/xlink" x="0px" y="0px"
	 viewBox="0 0 571.1 103.8" style="enable-background:new 0 0 571.1 103.8;" xml:space="preserve">
<style type="text/css">
	.st0{fill:#FFFFFF;}
</style>
<g>
	<path id="KU" class="st0" d="M314,22.8c9.3,0,18.5,0,27.8,0c0,27.1,0,54.3,0,81.6c-1.9,0-3.8,0-5.7,0c-0.3,0-0.7-0.4-1-0.6
		c-3.6-3.1-7.3-6.3-10.9-9.4c-0.3-0.2-0.6-0.4-0.9-0.7c-4.3,4.6-9.4,8-15.3,10.1c-10.3,3.7-20.5,3.1-30.3-1.4
		c-9.2-4.2-14-11.9-15.5-21.8c-0.4-2.4-0.4-4.9-0.4-7.4c0-14.9,0-29.8,0-44.8c0-0.5,0-1,0-1.3c-11.6,11.6-23.1,23.3-34.9,35
		c13.8,13.8,27.9,27.9,42.2,42.2c-0.6,0-1,0-1.3,0c-10.9,0-21.8,0-32.6,0c-0.8,0-1.3-0.2-1.9-0.8c-10.3-10.3-20.7-20.5-31-30.7
		c-0.5-0.5-1-1-1.7-1.4c0,10.9,0,21.9,0,32.8c-9.3,0-18.5,0-27.8,0c0-27.2,0-54.4,0-81.7c9.2,0,18.4,0,27.7,0c0,10.6,0,21.2,0,32.1
		c0.5-0.5,0.8-0.7,1.1-1c10-10,20.1-20.1,30.1-30.1c0.6-0.6,1.3-0.9,2.2-0.9c18.1,0,36.2,0,54.4,0c0.4,0,0.9,0,1.5,0
		c0,0.6,0,1,0,1.5c0,14.9,0,29.8,0.1,44.8c0,2.6,0.3,5.3,0.8,7.8c1.2,5.8,4.8,8.2,10.7,7.6c5.7-0.6,9.6-3.7,12.3-8.4
		c0.3-0.4,0.3-1.1,0.3-1.6c0-16.7,0-33.4,0-50C314,23.9,314,23.4,314,22.8z"/>
	<path id="R" class="st0" d="M0,0c0.4,0,0.8,0,1.1,0c13.1,0,26.2-0.1,39.2,0c10.9,0.1,20.8,3.3,29.2,10.4
		c6.2,5.2,10.4,11.7,11.7,19.8c1.4,8.9-1.1,16.8-6.7,23.8c-3,3.8-6.8,6.9-11.1,9.5c9.8,13.6,19.5,27.1,29.4,40.8
		c-0.4,0-0.7,0.1-1,0.1c-9.9,0-19.8,0-29.6,0c-0.8,0-1.2-0.4-1.6-0.9c-7.9-11-15.8-21.9-23.7-32.9c-0.5-0.7-1-1.1-1.9-1
		c-2.4,0.1-4.7,0-7.2,0c0,11.6,0,23.1,0,34.7c-9.3,0-18.5,0-27.8,0C0,69.6,0,34.9,0,0z M27.8,17.1c0,12,0,23.5,0,35.3
		c3.9-0.1,7.7,0.1,11.4-0.4c8.1-1.2,14.2-8.2,14.5-16.3c0.3-8.4-5-16-13.2-17.7C36.4,17.1,32.1,17.4,27.8,17.1z"/>
	<path id="O" class="st0" d="M167.2,63.6c0,23.7-19.2,42.5-43.3,42.5c-23.3,0-42.4-19.1-42.4-42.5c0-23.7,19.2-42.7,42.9-42.6
		C148.2,21,167.3,40.1,167.2,63.6z M138.1,64c0-4.6-0.7-8.7-2.2-12.6c-1.3-3.2-3-6.1-5.8-8.2c-3.7-2.8-7.8-2.8-11.5,0
		c-2.1,1.6-3.6,3.7-4.8,6.1c-3.5,7.4-4,15.1-2,22.9c1,4.1,2.8,7.8,5.9,10.8c3.9,3.7,8.9,3.9,12.9,0.2c1.5-1.3,2.7-3,3.7-4.6
		C137.2,74,138.1,68.9,138.1,64z"/>
	<path id="V" class="st0" d="M466.4,0.6c0.6,0,1,0,1.5,0c8,0,15.9,0,23.9,0c1.1,0,1.5,0.3,1.9,1.3c8.2,22.2,16.5,44.4,24.7,66.7
		c0.2,0.4,0.3,0.9,0.6,1.5c0.8-2.1,1.5-4.1,2.3-6c7.7-20.7,15.4-41.4,23.1-62.2c0.4-1.1,0.9-1.3,2-1.3c7.8,0.1,15.5,0,23.3,0
		c0.4,0,0.8,0,1.4,0c-0.2,0.5-0.3,0.8-0.4,1.2c-13.6,33.9-27.2,67.8-40.9,101.8c-0.3,0.8-0.7,1.1-1.5,1.1c-6.3,0-12.6,0-18.8,0
		c-0.8,0-1.2-0.3-1.5-1c-13.7-34-27.3-68.1-41-102.1C466.6,1.2,466.5,1,466.4,0.6z"/>
	<path id="T" class="st0" d="M435.3,103.8c-8.2,0-16.2,0-24.3,0c0-26.9,0-53.8,0-80.7c-10.3,0-20.5,0-30.7,0c0-7.5,0-14.9,0-22.4
		c28.6,0,57.2,0,85.8,0c0,7.5,0,14.8,0,22.3c-10.2,0-20.4,0-30.8,0C435.3,50,435.3,76.8,435.3,103.8z"/>
</g>
</svg>
