<svg xmlns="http://www.w3.org/2000/svg" viewBox="0 0 142.91 145.5">
  <defs>
    <style>
      .cls-1 {
        fill: #fec246;
      }
    </style>
  </defs>
  <title>Asset 2</title>
  <g id="Layer_2" data-name="Layer 2">
    <g id="Layer_2-2" data-name="Layer 2">
      <path class="cls-1" d="M62.78,8.5l-11,42s-1,3.72-10,5l-35,5s-13,1-3,8,32,22,32,22,4,3,4,4c0,2.24-14,37-14,37s-4,8,0,9,9-2,9-2l32-22s4-2,6,0,26,23,29,25,6,4,8,4,5-1,5-5-15-45-15-45a3.53,3.53,0,0,1,1-4c2-2,38-24,38-24s5-3,4-6c0,0-1.5-3.5-10.5-4.5s-39-5-39-5a4.37,4.37,0,0,1-4-3c-1-3-12.66-37.65-14-41-2-5-2-8-6-8C67.28,0,65.28,0,62.78,8.5Z"/>
    </g>
  </g>
</svg>
