<svg xmlns="http://www.w3.org/2000/svg" viewBox="0 0 128.29 133.01">
  <defs>
    <style>
      .cls-1 {
        fill: #89ce5f;
      }
    </style>
  </defs>
  <title>Asset 5</title>
  <g id="Layer_2" data-name="Layer 2">
    <g id="Thumb_Down" data-name="Thumb Down">
      <path class="cls-1" d="M67.29,26.26s-7,7-14,11-14.2,9.07-15.6,11-3.56,5.12-4,6.55-18.55-.79-21-2.18-6.28-.91-6.85.85S-1,89.23.14,105.25c0,0,.15,6,2.15,6A76.52,76.52,0,0,0,14,110.92c4.32-.66,11.52,2.54,18.42,7.44s15.9,8.9,20.9,9.9,19.62,4.17,28.81,4.58,18.19.42,23.19-4.58,4-9,4-11,3-4,5-7,3.67-4.31,2.34-9.65a5.69,5.69,0,0,0-1.34-2.35c-1-1,2-1,2-1s6.46-3.33,6.73-10.66-2.73-11.34-2.73-11.34,7-7,7-11-.15-11.6-10.58-13.8-19.41-.4-29.92-5.3c0,0-5.5-2.9-6.5-3.9s6.27-3.12,11.13-13.06S94.29,7.26,91.29,4.26s-6-5-8-4-4.35,3.15-6.68,9.08S68.29,25.26,67.29,26.26Z"/>
    </g>
  </g>
</svg>
