<svg xmlns="http://www.w3.org/2000/svg" viewBox="0 0 128.29 133.01">
  <defs>
    <style>
      .cls-1 {
        fill: #ce5757;
      }
    </style>
  </defs>
  <title>Asset 3</title>
  <g id="Layer_2" data-name="Layer 2">
    <g id="Thumb_Down" data-name="Thumb Down">
      <path class="cls-1" d="M61,106.75s7-7,14-11,14.19-9.07,15.6-11,3.56-5.12,4-6.55,18.55.79,21,2.18,6.28.91,6.86-.85,6.88-35.72,5.73-51.74c0,0-.15-6-2.15-6a76.5,76.5,0,0,0-11.68.34c-4.32.66-11.52-2.55-18.42-7.44S80,5.75,75,4.75,55.38.58,46.19.17,28-.25,23,4.75s-4,9-4,11-3,4-5,7-3.68,4.31-2.34,9.65A5.69,5.69,0,0,0,13,34.75c1,1-2,1-2,1S4.53,39.08,4.27,46.41,7,57.75,7,57.75s-7,7-7,11,.15,11.6,10.57,13.8S30,83,40.49,87.85c0,0,5.51,2.9,6.51,3.9s-6.27,3.12-11.13,13.06S34,125.75,37,128.75s6,5,8,4,4.35-3.16,6.67-9.08S60,107.75,61,106.75Z"/>
    </g>
  </g>
</svg>
