<?xml version="1.0" encoding="utf-8"?>
<!-- Generator: Adobe Illustrator 22.1.0, SVG Export Plug-In . SVG Version: 6.00 Build 0)  -->
<svg version="1.1" xmlns="http://www.w3.org/2000/svg" xmlns:xlink="http://www.w3.org/1999/xlink" x="0px" y="0px"
	 viewBox="0 0 453 441.4" style="enable-background:new 0 0 453 441.4;" xml:space="preserve">
<style type="text/css">
	.st0{fill:#111111;}
</style>
<g id="Layer_6">
	<path class="st0" d="M420.1,104.4H381H280.1H245h-37h-35.1H53.3H32.9C14.7,104.4,0,119.1,0,137.3v271.3c0,18.1,14.7,32.8,32.9,32.9
		h387.3c18.1,0,32.8-14.7,32.9-32.9V137.3C453,119.1,438.3,104.4,420.1,104.4z M317.7,369.1c0,9.9-8,17.9-17.9,17.9H71.2
		c-9.9,0-17.9-8-17.9-17.9V176.7c0-9.9,8-17.9,17.9-17.9h228.6c9.9,0,17.9,8,17.9,17.9L317.7,369.1L317.7,369.1z M383.8,363.4
		c-17.1,0-31-13.9-31-31s13.9-31,31-31s31,13.9,31,31S400.9,363.4,383.8,363.4z M383.8,244.4c-17.1,0-31-13.9-31-31s13.9-31,31-31
		s31,13.9,31,31S400.9,244.4,383.8,244.4z"/>
</g>
<g id="Layer_5">
	<path class="st0" d="M148.8,7.2c-4.3-7.1-13.5-9.3-20.6-5c-7.1,4.3-9.3,13.5-5,20.6l49.7,81.6H208L148.8,7.2z"/>
</g>
<g id="Layer_4">
	<path class="st0" d="M324.8,2.2c-7.1-4.3-16.3-2.1-20.6,5L245,104.4h35.1l49.7-81.6C334.1,15.7,331.9,6.5,324.8,2.2z"/>
</g>
<g id="Layer_3">
	<path class="st0" d="M371.1,226.6L371.1,226.6c-1.6-1.6-1.6-4.2,0-5.8l19.6-19.6c1.6-1.6,4.2-1.6,5.8,0v0c1.6,1.6,1.6,4.2,0,5.8
		l-19.6,19.6C375.3,228.2,372.7,228.2,371.1,226.6z"/>
</g>
<g id="Layer_2">
	<path class="st0" d="M365.9,331.4L365.9,331.4c0.3-2.2,2.4-3.8,4.6-3.5l27.5,3.7c2.2,0.3,3.8,2.4,3.5,4.6v0
		c-0.3,2.2-2.4,3.8-4.6,3.5l-27.5-3.7C367.2,335.7,365.6,333.6,365.9,331.4z"/>
</g>
</svg>
